<svg xmlns="http://www.w3.org/2000/svg" xmlns:xlink="http://www.w3.org/1999/xlink" viewBox="0 0 1328.3 543.51"><defs><style>.cls-1{fill:#1a987c;}.cls-2{fill:url(#linear-gradient);}.cls-3{fill:#4d4d4d;}</style><linearGradient id="linear-gradient" x1="-2209.85" y1="745.36" x2="-2208.98" y2="745.04" gradientTransform="matrix(273.56, 0, 0, -422.67, 605101.83, 315192.4)" gradientUnits="userSpaceOnUse"><stop offset="0" stop-color="#89c739"/><stop offset="0.41" stop-color="#6dbe4d"/><stop offset="1" stop-color="#1a987c"/></linearGradient></defs><g id="Layer_2" data-name="Layer 2"><g id="Layer_1-2" data-name="Layer 1"><g id="Group_38616" data-name="Group 38616"><g id="Group_38610" data-name="Group 38610"><g id="Group_27891" data-name="Group 27891"><path id="Path_81239" data-name="Path 81239" class="cls-1" d="M0,86.56Q0,.34,118.45.34,237.19.34,237.2,86.56V141.8H154.63V86.56q0-27.63-35.89-27.83h-.58q-35.59,0-35.59,27.83v37.25q0,27.42,77.31,67.17,77.33,39.54,77.32,94.79v51.9q0,86.43-118.46,86.42Q0,423.88,0,337.67V282.42H82.57v55.25q0,27.84,36.17,27.83,35.89,0,35.89-27.83V290.79q0-29.7-77.32-69.47Q0,181.77,0,125.06Z"/></g><path id="Path_81240" data-name="Path 81240" class="cls-1" d="M1074.56,0V222c0,17.89-12,34.08-31.33,45.8a128.83,128.83,0,0,1-37.85,14.83V424.57H929.82V282.64c-40.42-9.25-69.18-32.9-69.18-60.63V0h77V221.62c0,10,13.4,18.13,29.94,18.13s30-8.12,30-18.13V0Z"/><path id="Path_81241" data-name="Path 81241" class="cls-1" d="M1224.16,0C1166.62,0,1120,26,1120,58.06V424.57h75v-142a182.88,182.88,0,0,0,29.19,2.32c28.76,0,54.8-6.5,73.64-17s30.5-25,30.5-41.06V58.06C1328.31,26,1281.67,0,1224.16,0Zm29.16,181.31c0,.09,0,.17,0,.26s0,.17,0,.27V229.1c0,9-13.08,16.24-29.16,16.24-8.07,0-15.36-1.81-20.63-4.76s-8.56-7-8.56-11.48V56.78c0-9,13.07-16.24,29.19-16.24,8,0,15.34,1.81,20.6,4.75s8.56,7,8.56,11.49Z"/><path id="Path_81242" data-name="Path 81242" class="cls-1" d="M528.37,0V57.66H440.48v366.9H364.93V57.66H277.05V0Z"/><path id="Path_81243" data-name="Path 81243" class="cls-2" d="M814.84,82.46C812,36.7,759.4.21,694.9.21h0C630.39.21,577.78,36.7,575,82.46h-.14v60.12l-33.4-14.1q.09,31.83.17,63.64l33.23,13.77V336.77c0,47.56,53.76,86.12,120.08,86.12h0c66.31,0,120.08-38.56,120.08-86.12v-56H728.52v58.72c0,13.32-15,24.11-33.62,24.11h0c-18.56,0-33.62-10.8-33.62-24.11V270c0-.14,0-.26,0-.39a2.46,2.46,0,0,0,0-.28,2.64,2.64,0,0,1,0-.28c0-.13,0-.26,0-.38V244.85a165.15,165.15,0,0,0,33.62,3.45h0c55,0,101.34-26.54,115.55-62.73h.13l0-.35a63.75,63.75,0,0,0,4.38-23V82.46ZM694.9,189.61h0A44.38,44.38,0,0,1,681,187.43l-7.22-3.05-12.54-5.86V95.37c0-.13,0-.25,0-.38s0-.25,0-.38V84.45c0-13.32,15.06-24.12,33.62-24.12h0c18.57,0,33.62,10.8,33.62,24.12V94.6c0,.14,0,.26,0,.39s0,.25,0,.38v70.12C728.52,178.81,713.47,189.61,694.9,189.61Z"/></g><g id="Group_38615" data-name="Group 38615"><path id="Path_93926" data-name="Path 93926" class="cls-3" d="M304.09,521.73l-6.47-18H272.88l-6.33,18H255.39l24.21-65h11.51l24.22,65Zm-9.26-27.09L288.77,477c-.44-1.18-1.06-3-1.84-5.58s-1.32-4.4-1.61-5.58a100.34,100.34,0,0,1-3.5,11.91L276,494.64Z"/><path id="Path_93927" data-name="Path 93927" class="cls-3" d="M365.84,521.73H355.39v-30.1c0-3.78-.76-6.59-2.28-8.45s-3.93-2.79-7.23-2.79q-6.6,0-9.66,3.9t-3.05,13.06v24.39h-10.4v-49h8.15l1.46,6.42h.53a14.41,14.41,0,0,1,6.29-5.4,20.82,20.82,0,0,1,9-1.9q17.61,0,17.61,17.93Z"/><path id="Path_93928" data-name="Path 93928" class="cls-3" d="M403.25,459.8a5.76,5.76,0,0,1,1.53-4.29,5.92,5.92,0,0,1,4.36-1.51,5.29,5.29,0,0,1,5.8,5.8,5.66,5.66,0,0,1-1.53,4.18,5.8,5.8,0,0,1-4.27,1.53,5.92,5.92,0,0,1-4.36-1.53A5.62,5.62,0,0,1,403.25,459.8Zm11,61.93h-10.4v-49h10.4Z"/><path id="Path_93929" data-name="Path 93929" class="cls-3" d="M472.22,521.73H461.77v-30.1c0-3.78-.76-6.59-2.28-8.45s-3.93-2.79-7.23-2.79q-6.6,0-9.66,3.9t-3.05,13.06v24.39h-10.4v-49h8.15l1.46,6.42h.53a14.44,14.44,0,0,1,6.28-5.4,20.88,20.88,0,0,1,9-1.9q17.63,0,17.62,17.93Z"/><path id="Path_93930" data-name="Path 93930" class="cls-3" d="M486.08,459.8a5.75,5.75,0,0,1,1.52-4.29A6,6,0,0,1,492,454a5.83,5.83,0,0,1,4.28,1.51,5.75,5.75,0,0,1,1.52,4.29,5.62,5.62,0,0,1-1.52,4.18,5.81,5.81,0,0,1-4.28,1.53A5.93,5.93,0,0,1,487.6,464,5.62,5.62,0,0,1,486.08,459.8Zm11,61.93H486.7v-49h10.4Z"/><path id="Path_93931" data-name="Path 93931" class="cls-3" d="M530.21,514.21a25.55,25.55,0,0,0,7.62-1.2v7.83a20.34,20.34,0,0,1-4.45,1.26,29.69,29.69,0,0,1-5.65.51Q513,522.61,513,507V480.65h-6.69v-4.6l7.17-3.81L517,461.88h6.42v10.89h13.94v7.88H523.4v26.21c0,2.51.62,4.36,1.88,5.55A6.86,6.86,0,0,0,530.21,514.21Z"/><path id="Path_93932" data-name="Path 93932" class="cls-3" d="M547,459.8a5.76,5.76,0,0,1,1.53-4.29,5.92,5.92,0,0,1,4.36-1.51,5.29,5.29,0,0,1,5.8,5.8,5.66,5.66,0,0,1-1.53,4.18,5.8,5.8,0,0,1-4.27,1.53,5.92,5.92,0,0,1-4.36-1.53A5.66,5.66,0,0,1,547,459.8Zm11,61.93h-10.4v-49H558Z"/><path id="Path_93933" data-name="Path 93933" class="cls-3" d="M603.52,521.73l-2.08-6.82h-.35A20,20,0,0,1,594,521a22.49,22.49,0,0,1-9.21,1.62q-7.21,0-11.26-3.9t-4-11q0-7.57,5.62-11.43t17.13-4.2l8.46-.26V489.2q0-4.69-2.2-7c-1.46-1.55-3.72-2.33-6.8-2.33a23.85,23.85,0,0,0-7.21,1.11,55.78,55.78,0,0,0-6.64,2.61l-3.37-7.43a36.15,36.15,0,0,1,8.72-3.17,40.34,40.34,0,0,1,9-1.08q9.33,0,14.1,4.07T611,488.75v33ZM588,514.65a12.9,12.9,0,0,0,9.1-3.17q3.42-3.17,3.43-8.87v-4.25l-6.29.26q-7.35.27-10.69,2.46a7.45,7.45,0,0,0-3.34,6.71,6.51,6.51,0,0,0,2,5.07C583.49,514.05,585.43,514.65,588,514.65Z"/><path id="Path_93934" data-name="Path 93934" class="cls-3" d="M643.72,514.21a25.53,25.53,0,0,0,7.61-1.2v7.83a20.19,20.19,0,0,1-4.45,1.26,29.66,29.66,0,0,1-5.64.51q-14.79,0-14.79-15.58V480.65h-6.68v-4.6l7.17-3.81,3.54-10.36h6.42v10.89h14v7.88h-14v26.21q0,3.76,1.88,5.55A6.88,6.88,0,0,0,643.72,514.21Z"/><path id="Path_93935" data-name="Path 93935" class="cls-3" d="M660.5,459.8a5.75,5.75,0,0,1,1.52-4.29,6,6,0,0,1,4.36-1.51,5.83,5.83,0,0,1,4.28,1.51,5.75,5.75,0,0,1,1.52,4.29,5.62,5.62,0,0,1-1.52,4.18,5.81,5.81,0,0,1-4.28,1.53A5.93,5.93,0,0,1,662,464,5.62,5.62,0,0,1,660.5,459.8Zm11,61.93h-10.4v-49h10.4Z"/><path id="Path_93936" data-name="Path 93936" class="cls-3" d="M697.55,521.73l-18.59-49h11l10,28.46a56.94,56.94,0,0,1,3.1,11.6h.35a77.83,77.83,0,0,1,3.1-11.6l10-28.46h11.07l-18.68,49Z"/><path id="Path_93937" data-name="Path 93937" class="cls-3" d="M756.3,522.62q-11.43,0-17.87-6.67T732,497.6q0-12,6-18.85t16.42-6.87q9.71,0,15.32,5.89t5.62,16.2v5.62H742.71q.21,7.14,3.85,11t10.22,3.83a37.75,37.75,0,0,0,8.08-.82,42.29,42.29,0,0,0,8-2.72v8.46a32.26,32.26,0,0,1-7.7,2.56A47.48,47.48,0,0,1,756.3,522.62Zm-1.9-42.86a10.48,10.48,0,0,0-7.95,3.15q-3,3.13-3.56,9.16h22.22q-.09-6.06-2.92-9.19a10,10,0,0,0-7.8-3.12Z"/><path id="Path_93938" data-name="Path 93938" class="cls-3" d="M835.27,480.65H823.32v41.08H812.87V480.65h-8v-4.87l8-3.19v-3.18q0-8.69,4.08-12.86t12.43-4.19a33.05,33.05,0,0,1,10.8,1.82l-2.74,7.88a23.57,23.57,0,0,0-7.35-1.24q-3.54,0-5.16,2.19t-1.61,6.57v3.19h11.95Z"/><path id="Path_93939" data-name="Path 93939" class="cls-3" d="M868.43,471.88a25,25,0,0,1,5.18.45l-1,9.69a19.8,19.8,0,0,0-4.6-.53,13.32,13.32,0,0,0-10.12,4.07A14.75,14.75,0,0,0,854,496.14v25.59H843.6v-49h8.15l1.37,8.63h.53a19.52,19.52,0,0,1,6.35-6.95A15.15,15.15,0,0,1,868.43,471.88Z"/><path id="Path_93940" data-name="Path 93940" class="cls-3" d="M926.11,497.16q0,12-6.15,18.73t-17.13,6.73a23.54,23.54,0,0,1-12.13-3.1,20.45,20.45,0,0,1-8.1-8.9,30.37,30.37,0,0,1-2.84-13.46q0-11.91,6.11-18.59t17.22-6.69q10.63,0,16.83,6.84T926.11,497.16Zm-35.63,0q0,17,12.52,17t12.4-17q0-16.77-12.48-16.77-6.55,0-9.5,4.33T890.48,497.16Z"/><path id="Path_93941" data-name="Path 93941" class="cls-3" d="M979.32,521.73H968.88V491.54c0-3.75-.71-6.54-2.13-8.39s-3.63-2.77-6.64-2.77q-6,0-8.83,3.92t-2.81,13v24.39h-10.4v-49h8.14l1.47,6.42h.53a13.48,13.48,0,0,1,5.91-5.4,18.89,18.89,0,0,1,8.52-1.9q11.28,0,15,7.7h.71a15,15,0,0,1,6.11-5.67,19.24,19.24,0,0,1,9-2q8.76,0,12.77,4.42t4,13.5v31.92h-10.4V491.54q0-5.62-2.15-8.39T991,480.38c-4,0-7,1.26-8.88,3.79s-2.81,6.39-2.81,11.62Z"/><path id="Path_93942" data-name="Path 93942" class="cls-1" d="M1074,521.73h-13.72v-53.3h-17.58V457h48.88v11.42H1074Z"/><path id="Path_93943" data-name="Path 93943" class="cls-1" d="M1131.88,521.73l-2.62-6.73h-.35a19.89,19.89,0,0,1-7,6,22.76,22.76,0,0,1-9.4,1.66q-7.14,0-11.23-4.08t-4.09-11.6q0-7.87,5.51-11.62t16.62-4.14l8.59-.26v-2.17q0-7.53-7.7-7.53-5.93,0-13.94,3.59l-4.47-9.12a40.23,40.23,0,0,1,18.94-4.47q10,0,15.28,4.34t5.31,13.19v33Zm-4-22.93-5.22.18c-3.93.12-6.85.82-8.77,2.12A6.67,6.67,0,0,0,1111,507q0,5.72,6.55,5.72a10.41,10.41,0,0,0,7.5-2.7,9.51,9.51,0,0,0,2.81-7.18Z"/><path id="Path_93944" data-name="Path 93944" class="cls-1" d="M1168.71,521.73h-13.5V452.85h13.5Z"/><path id="Path_93945" data-name="Path 93945" class="cls-1" d="M1210.5,471.31a21.14,21.14,0,0,1,4.56.4l-1,12.66a15.24,15.24,0,0,0-4-.44q-6.46,0-10.08,3.32t-3.6,9.3v25.19h-13.5v-49.5h10.22l2,8.33h.67a18.54,18.54,0,0,1,6.22-6.71A15.35,15.35,0,0,1,1210.5,471.31Z"/><path id="Path_93946" data-name="Path 93946" class="cls-1" d="M1269,496.9q0,12.08-6.37,18.9t-17.75,6.81a24.79,24.79,0,0,1-12.58-3.12,20.79,20.79,0,0,1-8.36-9,30.07,30.07,0,0,1-2.92-13.64q0-12.12,6.33-18.86t17.8-6.73a25,25,0,0,1,12.57,3.1,20.65,20.65,0,0,1,8.36,8.9A29.88,29.88,0,0,1,1269,496.9Zm-34.22,0q0,7.35,2.41,11.11t7.86,3.76q5.4,0,7.77-3.74t2.37-11.13q0-7.35-2.39-11c-1.59-2.45-4.21-3.67-7.84-3.67s-6.19,1.22-7.79,3.65S1234.8,492,1234.8,496.9Z"/><path id="Path_93947" data-name="Path 93947" class="cls-1" d="M1307.36,522.62q-8.71,0-13.68-6.33H1293q.71,6.19.71,7.17v20h-13.5V472.24h11l1.9,6.42h.62q4.74-7.35,14-7.35a16,16,0,0,1,13.72,6.77q5,6.78,5,18.82a36.92,36.92,0,0,1-2.32,13.76,19.29,19.29,0,0,1-6.62,8.9A16.92,16.92,0,0,1,1307.36,522.62Zm-4-40.51c-3.34,0-5.77,1-7.31,3.08s-2.33,5.44-2.39,10.16v1.46q0,8,2.37,11.42t7.5,3.45q9.08,0,9.07-15,0-7.31-2.23-11a7.64,7.64,0,0,0-7-3.65Z"/></g></g></g></g></svg>