<svg xmlns="http://www.w3.org/2000/svg" width="28.621" height="19.081" viewBox="0 0 28.621 19.081">
  <g id="Group_2735" data-name="Group 2735" transform="translate(-1273.171 -695)">
    <path id="_11692694291582807766" data-name="11692694291582807766" d="M0,6.385A2.385,2.385,0,0,1,2.385,4H26.236a2.385,2.385,0,0,1,2.385,2.385V8.77a2.77,2.77,0,0,1-1.973,2.515,2.387,2.387,0,0,0,0,4.509,2.77,2.77,0,0,1,1.973,2.515V20.7a2.385,2.385,0,0,1-2.385,2.385H2.385A2.385,2.385,0,0,1,0,20.7V18.311A2.77,2.77,0,0,1,1.973,15.8a2.387,2.387,0,0,0,0-4.509A2.77,2.77,0,0,1,0,8.77Zm16.7,0H2.385V8.767a.213.213,0,0,0,.044.064.8.8,0,0,0,.324.2,4.772,4.772,0,0,1,0,9.017.8.8,0,0,0-.324.2.213.213,0,0,0-.044.064V20.7H16.7V19.5a1.193,1.193,0,1,1,2.385,0V20.7h7.155V18.314a.211.211,0,0,0-.044-.064.8.8,0,0,0-.324-.2,4.772,4.772,0,0,1,0-9.017.8.8,0,0,0,.324-.2.212.212,0,0,0,.044-.064V6.385H19.081V7.578a1.193,1.193,0,1,1-2.385,0Zm1.193,4.77a1.193,1.193,0,0,1,1.193,1.193v2.385a1.193,1.193,0,1,1-2.385,0V12.348A1.193,1.193,0,0,1,17.888,11.155Z" transform="translate(1273.171 691)" fill="#111" fill-rule="evenodd"/>
    <path id="Path_7995" data-name="Path 7995" d="M13701.8-23802.844a1.332,1.332,0,0,1,1.266-1.016,1.285,1.285,0,0,1,1.219,1.016v2.766a1.152,1.152,0,0,1-1.219,1.016,1.219,1.219,0,0,1-1.266-1.016Z" transform="translate(-12412 24506)" fill="#8ed16f"/>
  </g>
</svg>
