<svg id="eye" xmlns="http://www.w3.org/2000/svg" width="36.489" height="23.257" viewBox="0 0 36.489 23.257">
  <g id="Group_2597" data-name="Group 2597" transform="translate(0 0)">
    <g id="Group_2596" data-name="Group 2596" transform="translate(0)">
      <path id="Path_7822" data-name="Path 7822" d="M36.257,103.754c-.326-.446-8.093-10.919-18.013-10.919S.557,103.308.232,103.753a1.2,1.2,0,0,0,0,1.42c.326.446,8.093,10.919,18.013,10.919s17.687-10.473,18.013-10.918A1.2,1.2,0,0,0,36.257,103.754Zm-18.013,9.932c-7.307,0-13.636-6.951-15.509-9.223,1.871-2.274,8.186-9.222,15.509-9.222,7.307,0,13.635,6.95,15.509,9.223C31.883,106.739,25.567,113.686,18.244,113.686Z" transform="translate(0 -92.835)" fill="#707070"/>
    </g>
  </g>
  <g id="Group_2599" data-name="Group 2599" transform="translate(11.027 4.411)">
    <g id="Group_2598" data-name="Group 2598">
      <path id="Path_7823" data-name="Path 7823" d="M161.94,154.725a7.218,7.218,0,1,0,7.218,7.218A7.226,7.226,0,0,0,161.94,154.725Zm0,12.029a4.812,4.812,0,1,1,4.812-4.812A4.817,4.817,0,0,1,161.94,166.754Z" transform="translate(-154.722 -154.725)" fill="#707070"/>
    </g>
  </g>
</svg>
