<svg xmlns="http://www.w3.org/2000/svg" width="31.779" height="27.267" viewBox="0 0 31.779 27.267">
  <g id="hide" transform="translate(0 -33.926)">
    <g id="Group_2607" data-name="Group 2607" transform="translate(0 33.926)">
      <path id="Path_7824" data-name="Path 7824" d="M31.562,46.892A30.134,30.134,0,0,0,24.7,40.356l4.479-4.479A1.135,1.135,0,0,0,27.6,34.245l-.028.028-4.893,4.888a14.675,14.675,0,0,0-6.789-1.816C7.264,37.345.5,46.5.217,46.892a1.135,1.135,0,0,0,0,1.335,30.139,30.139,0,0,0,6.864,6.536L2.6,59.242A1.135,1.135,0,0,0,4.18,60.875l.028-.028L9.1,55.958a14.672,14.672,0,0,0,6.789,1.816c8.626,0,15.389-9.157,15.673-9.547A1.135,1.135,0,0,0,31.562,46.892ZM8.732,53.117a28.265,28.265,0,0,1-6.15-5.556c1.671-2.024,7.089-7.945,13.309-7.945a12.012,12.012,0,0,1,5.095,1.248l-1.97,1.97a5.666,5.666,0,0,0-7.854,7.854ZM18.954,46.1a3.35,3.35,0,0,1,.34,1.459,3.4,3.4,0,0,1-3.4,3.4,3.345,3.345,0,0,1-1.458-.34Zm-6.129,2.917a3.348,3.348,0,0,1-.34-1.459,3.4,3.4,0,0,1,3.4-3.4,3.342,3.342,0,0,1,1.458.34ZM15.89,55.5a12.016,12.016,0,0,1-5.095-1.249l1.97-1.97a5.666,5.666,0,0,0,7.854-7.854L23.048,42A28.266,28.266,0,0,1,29.2,47.56C27.528,49.584,22.109,55.5,15.89,55.5Z" transform="translate(0 -33.926)" fill="#707070"/>
    </g>
  </g>
</svg>
