<svg id="Layer_2" data-name="Layer 2" xmlns="http://www.w3.org/2000/svg" width="37.385" height="26.917" viewBox="0 0 37.385 26.917">
  <g id="The_envelope" transform="translate(0 0)">
    <path id="Path_7815" data-name="Path 7815" d="M24.854,20.212l8.225-6.647a1.869,1.869,0,0,0-1.981-3.17l-8.225,6.647a1.869,1.869,0,1,0,1.981,3.17Z" transform="translate(-5.548 -2.552)" fill="#00c569"/>
    <path id="Path_7816" data-name="Path 7816" d="M22.08,17.042l-8.225-6.647a1.869,1.869,0,0,0-1.981,3.17L20.1,20.212a1.869,1.869,0,0,0,1.974-3.17Z" transform="translate(-2.775 -2.552)" fill="#111"/>
    <path id="Path_7817" data-name="Path 7817" d="M31.239,0H6.146A6.146,6.146,0,0,0,0,6.146V20.771a6.146,6.146,0,0,0,6.146,6.146H31.239a6.146,6.146,0,0,0,6.146-6.146V6.146A6.146,6.146,0,0,0,31.239,0Zm2.408,20.771a2.408,2.408,0,0,1-2.408,2.408H6.146a2.408,2.408,0,0,1-2.408-2.408V6.146A2.408,2.408,0,0,1,6.146,3.739H31.239a2.408,2.408,0,0,1,2.408,2.408Z" transform="translate(0 0)" fill="#111"/>
  </g>
</svg>
