<svg id="Layer_2" data-name="Layer 2" xmlns="http://www.w3.org/2000/svg" width="25.61" height="33.706" viewBox="0 0 25.61 33.706">
  <g id="lock_2" transform="translate(0 0)">
    <path id="Path_7819" data-name="Path 7819" d="M7.413,15.159V8.972a5.533,5.533,0,0,1,5.041-5.607A5.392,5.392,0,0,1,18.2,8.757v5.392H3.943A3.943,3.943,0,0,0,0,18.091V29.75a3.943,3.943,0,0,0,3.943,3.943H21.667A3.943,3.943,0,0,0,25.61,29.75V18.091a3.943,3.943,0,0,0-3.943-3.943h-.1V8.757A8.761,8.761,0,0,0,12.407,0,8.943,8.943,0,0,0,4.044,9.026v6.133M22.24,29.75a.573.573,0,0,1-.573.573H3.943a.573.573,0,0,1-.573-.573V18.091a.573.573,0,0,1,.573-.573H21.667a.573.573,0,0,1,.573.573Z" transform="translate(0 0.013)" fill="#111"/>
    <rect id="Rectangle_1879" data-name="Rectangle 1879" width="3.37" height="6.065" rx="1.685" transform="translate(11.12 20.901)" fill="#00c569"/>
  </g>
</svg>
