<svg xmlns="http://www.w3.org/2000/svg" width="28.621" height="30.473" viewBox="0 0 28.621 30.473">
  <g id="Layer_2" data-name="Layer 2" transform="translate(0.001)">
    <g id="Avatar" transform="translate(-0.001 0)">
      <path id="Path_7856" data-name="Path 7856" d="M28.534,25.67l-.78-3.7a7.313,7.313,0,0,0-3.322-4.735l-4.687-2.9a6.753,6.753,0,0,0,1.31-3.328l.372-3.5A6.783,6.783,0,0,0,14.687,0h-.75A6.783,6.783,0,0,0,7.191,7.5l.378,3.5a6.753,6.753,0,0,0,1.31,3.328l-4.693,2.9A7.313,7.313,0,0,0,.865,21.971l-.78,3.7a3.98,3.98,0,0,0,3.894,4.8H24.64a3.98,3.98,0,0,0,3.894-4.8ZM11.159,4.266a3.7,3.7,0,0,1,2.779-1.219h.75A3.73,3.73,0,0,1,18.4,7.179l-.372,3.5a3.736,3.736,0,0,1-7.429,0l-.372-3.5a3.657,3.657,0,0,1,.932-2.913ZM25.365,27.06a.9.9,0,0,1-.725.347H3.979a.9.9,0,0,1-.725-.347.926.926,0,0,1-.207-.762l.78-3.7a4.321,4.321,0,0,1,1.962-2.767l5.564-3.45a6.741,6.741,0,0,0,5.912,0l5.564,3.45A4.321,4.321,0,0,1,24.774,22.6l.78,3.7a.926.926,0,0,1-.189.78Z" transform="translate(0.001 0)" fill="#111"/>
      <rect id="Rectangle_1890" data-name="Rectangle 1890" width="6.095" height="3.047" rx="1.524" transform="translate(15.53 21.94)" fill="#00c569"/>
    </g>
  </g>
</svg>
