<svg xmlns="http://www.w3.org/2000/svg" width="139.524" height="139.524" viewBox="0 0 139.524 139.524">
  <g id="checked_1_" data-name="checked (1)" transform="translate(0.25 0.25)">
    <g id="Group_21214" data-name="Group 21214" transform="translate(33.01 24.478)">
      <g id="Group_21213" data-name="Group 21213">
        <path id="Path_38339" data-name="Path 38339" d="M214.319,65.726a4.761,4.761,0,0,0-6.734-.008L150.449,122.7l-20.614-22.389a4.763,4.763,0,0,0-7.008,6.452L146.8,132.8a4.757,4.757,0,0,0,3.4,1.535h.1a4.768,4.768,0,0,0,3.362-1.389l60.645-60.486A4.762,4.762,0,0,0,214.319,65.726Z" transform="translate(-121.568 -64.327)" fill="#15bf81" stroke="#15bf81" stroke-width="0.5"/>
      </g>
    </g>
    <g id="Group_21216" data-name="Group 21216">
      <g id="Group_21215" data-name="Group 21215">
        <path id="Path_38340" data-name="Path 38340" d="M133.785,64.272a5.239,5.239,0,0,0-5.239,5.24A59.033,59.033,0,1,1,69.512,10.479,5.24,5.24,0,1,0,69.512,0a69.512,69.512,0,1,0,69.512,69.512A5.239,5.239,0,0,0,133.785,64.272Z" fill="#1ec569" stroke="#1ec569" stroke-width="0.5"/>
      </g>
    </g>
  </g>
</svg>
