<svg xmlns="http://www.w3.org/2000/svg" width="22.304" height="29.355" viewBox="0 0 22.304 29.355">
  <g id="Layer_2" data-name="Layer 2" transform="translate(0 0.013)">
    <g id="lock" transform="translate(0 -0.013)">
      <path id="Path_7825" data-name="Path 7825" d="M18.87,12.32h-.088v-4.7a7.63,7.63,0,0,0-7.977-7.63A7.789,7.789,0,0,0,3.522,7.86V9.092a1.467,1.467,0,0,0,2.935,0V7.813a4.819,4.819,0,0,1,4.39-4.883,4.7,4.7,0,0,1,5,4.7v4.7H3.434A3.434,3.434,0,0,0,0,15.754V25.908a3.434,3.434,0,0,0,3.434,3.434H18.87A3.434,3.434,0,0,0,22.3,25.908V15.754A3.434,3.434,0,0,0,18.87,12.32Zm.5,13.588a.5.5,0,0,1-.5.5H3.434a.5.5,0,0,1-.5-.5V15.754a.5.5,0,0,1,.5-.5H18.87a.5.5,0,0,1,.5.5Z" transform="translate(0 0.013)"/>
      <rect id="Rectangle_1884" data-name="Rectangle 1884" width="2.935" height="5.283" rx="1.467" transform="translate(9.685 18.203)" fill="#00c569"/>
    </g>
  </g>
</svg>
